<svg height="512pt" viewBox="-72 0 512 512" width="512pt" xmlns="http://www.w3.org/2000/svg"><path d="m143.53125 144.601562c-43.707031 0-79.265625 35.558594-79.265625 79.265626 0 43.707031 35.558594 79.269531 79.265625 79.269531 43.710938 0 79.269531-35.5625 79.269531-79.269531 0-43.707032-35.558593-79.265626-79.269531-79.265626zm0 128.53125c-27.164062 0-49.265625-22.101562-49.265625-49.265624 0-27.167969 22.101563-49.269532 49.265625-49.269532 27.167969 0 49.269531 22.101563 49.269531 49.269532 0 27.164062-22.101562 49.265624-49.269531 49.265624zm0 0"/><path d="m352.398438 0h-128.53125c-6.066407 0-11.535157 3.652344-13.859376 9.261719-2.320312 5.601562-1.035156 12.054687 3.253907 16.34375l30.9375 30.941406-38.121094 38.117187c-19.414063-9.402343-40.808594-14.332031-62.546875-14.332031-79.144531 0-143.53125 64.390625-143.53125 143.535157 0 61.554687 39.089844 115.738281 96.398438 135.605468v18.09375h-33.199219c-8.285157 0-15 6.714844-15 15v64.265625c0 8.285157 6.714843 15 15 15h33.199219v25.167969c0 8.285156 6.71875 15 15 15h64.269531c8.28125 0 15-6.714844 15-15v-25.167969h33.199219c8.285156 0 15-6.714843 15-15v-64.265625c0-8.285156-6.714844-15-15-15h-33.199219v-18.09375c57.308593-19.867187 96.398437-74.054687 96.398437-135.605468 0-21.734376-4.929687-43.136719-14.332031-62.546876l38.121094-38.121093 30.9375 30.941406c4.289062 4.289063 10.742187 5.574219 16.347656 3.25 5.605469-2.320313 9.257813-7.789063 9.257813-13.859375v-128.53125c0-8.285156-6.714844-15-15-15zm-15 107.320312-15.9375-15.9375c-5.855469-5.859374-15.355469-5.859374-21.210938 0l-56.601562 56.597657c-4.839844 4.84375-5.789063 12.347656-2.304688 18.242187 10.285156 17.394532 15.722656 37.328125 15.722656 57.644532 0 51.816406-35.011718 97.027343-85.144531 109.949218-6.625 1.710938-11.257813 7.6875-11.257813 14.527344v44.222656c0 8.285156 6.71875 15 15 15h33.203126v34.269532h-33.203126c-8.28125 0-15 6.714843-15 15v25.164062h-34.265624v-25.167969c0-8.28125-6.714844-15-15-15h-33.199219v-34.265625h33.199219c8.285156 0 15-6.714844 15-15v-44.222656c0-6.84375-4.628907-12.820312-11.253907-14.527344-50.132812-12.921875-85.144531-58.136718-85.144531-109.949218 0-62.605469 50.929688-113.535157 113.53125-113.535157 20.316406 0 40.25 5.4375 57.648438 15.722657 5.894531 3.484374 13.398437 2.539062 18.238281-2.304688l56.597656-56.597656c5.859375-5.859375 5.859375-15.355469 0-21.214844l-15.9375-15.9375h77.320313zm0 0"/></svg>