<svg id="Capa_1" enable-background="new 0 0 512 512" height="512" viewBox="0 0 512 512" width="512" xmlns="http://www.w3.org/2000/svg"><g><path d="m256 0c80.788 0 152.835 37.422 199.753 95.877 5.094 6.346-2.455 22.369 2.025 29.19 15.848 24.127 27.727 51.092 34.711 79.969 1.585 6.555 15.264 3.78 16.334 10.521 2.091 13.173 3.177 26.681 3.177 40.443 0 141.385-114.615 256-256 256s-256-114.615-256-256c0-27.408 4.307-53.81 12.281-78.566 2.187-6.788 15.427.56 18.152-5.968 21.822-52.276 60.483-95.768 109.205-123.701 5.431-3.114.209-20.047 5.881-22.765 33.448-16.025 70.916-25 110.481-25z" fill="#84b017"/><path d="m256 56.783c110.024 0 199.217 89.192 199.217 199.217s-89.193 199.217-199.217 199.217-199.217-89.193-199.217-199.217 89.193-199.217 199.217-199.217z" fill="#9bcf1b"/><path d="m416.81 463.531-116.567-116.567c-2.508-2.508-6.575-2.508-9.083 0s-2.508 6.575 0 9.083l96.06 96.06c7.297 7.297 7.837 19.185.804 26.736-7.383 7.928-19.8 8.094-27.395.499l-96.383-96.383c-2.508-2.508-6.575-2.508-9.083 0s-2.508 6.575 0 9.083l69.147 69.147c7.297 7.297 7.837 19.185.804 26.736-7.383 7.928-19.8 8.094-27.395.499l-109.485-109.484c-16.569-16.569-27.55-37.9-31.408-61.012-3.858-23.113-14.839-44.443-31.408-61.012l-53.84-53.84c13.212-22.071 29.325-42.89 48.34-61.905 18.086-18.086 37.803-33.547 58.678-46.382l40.444 40.444c16.808 16.808 38.51 27.859 61.989 31.567l23.624 3.73c23.48 3.707 45.181 14.758 61.989 31.567l85.155 85.155c5.574 5.574 5.574 14.611 0 20.185-9.29 9.29-24.351 9.29-33.641 0l-56.013-56.013c-4.366-4.366-11.445-4.366-15.811 0s-4.366 11.445 0 15.812l112.881 112.881c7.297 7.297 7.837 19.185.804 26.736-7.383 7.928-19.8 8.094-27.395.499l-96.383-96.383c-2.508-2.508-6.575-2.508-9.083 0s-2.508 6.575 0 9.083l116.245 116.245c7.297 7.297 7.837 19.185.804 26.736-.084.09-.169.179-.254.267-.121.122-.241.243-.362.365-7.442 7.298-19.391 7.254-26.779-.134z" fill="#ffbeaa"/><path d="m391.034 474.484c-.774 1.553-1.778 3.019-3.018 4.351-7.383 7.928-19.8 8.094-27.395.499l-96.315-96.315c-3.576-3.576-3.576-9.373 0-12.948 3.576-3.576 9.372-3.576 12.948 0l98.893 98.893c4.079 4.08 9.551 5.92 14.887 5.52zm-77.789 3.572-109.486-109.486c-16.569-16.569-27.55-37.9-31.408-61.013-3.858-23.112-14.839-44.443-31.408-61.012l-59.264-59.264c-3.537 5.187-6.904 10.454-10.101 15.795l53.84 53.839c16.569 16.569 27.55 37.9 31.408 61.012 3.858 23.113 14.839 44.443 31.408 61.013l109.486 109.486c7.595 7.595 20.012 7.428 27.395-.5 1.24-1.332 2.245-2.798 3.018-4.351-5.336.401-10.808-1.439-14.888-5.519zm134.894-81.085-98.893-98.893c-3.576-3.576-9.372-3.576-12.948 0-3.575 3.575-3.575 9.372 0 12.948l96.315 96.315c7.595 7.595 20.012 7.428 27.395-.5 1.24-1.332 2.245-2.798 3.018-4.351-5.335.401-10.807-1.439-14.887-5.519zm-15.812 56.181-119.078-119.077c-3.576-3.576-9.372-3.576-12.948 0s-3.576 9.373 0 12.948l116.5 116.5c7.595 7.595 20.012 7.428 27.395-.5 1.24-1.332 2.245-2.798 3.018-4.351-5.335.401-10.807-1.44-14.887-5.52z" fill="#faa68e"/><path d="m451.797 307.435c-9.29 9.29-24.352 9.29-33.641 0l-55.917-55.917-.096-.097c-3.437-3.437-8.614-4.093-13.03-2.062-59.181 27.225-93.602 35.378-126.886 2.094l-7.689-7.688c-19.073-19.073-19.073-49.997 0-69.07 12.864-12.864 31.871-17.701 49.166-12.061 5.63 1.835 11.421 3.232 17.325 4.164l23.624 3.73c23.48 3.707 45.181 14.758 61.99 31.566l85.155 85.154c5.573 5.576 5.573 14.613-.001 20.187z" fill="#ffcdbe"/><path d="m459.97 295.422c2.787 2.787 2.787 7.305 0 10.092-2.787 2.787-7.305 2.787-10.092 0l-8.172-8.172c-5.574-5.574-5.574-14.611 0-20.185z" fill="#fff5f5"/><path d="m160.124 53.748 43.05 43.05c1.953 1.953 1.953 5.118 0 7.071l-121.622 121.622c-1.953 1.953-5.118 1.953-7.071 0l-40.837-40.837z" fill="#def4f8"/><path d="m59.081 153.6 47.181 47.181-24.71 24.71c-1.953 1.953-5.118 1.953-7.071 0l-40.837-40.837z" fill="#a6e0ec"/><path d="m145.52 25.001 32.906 32.905c3.905 3.905 3.905 10.237 0 14.142l-128.694 128.694c-3.905 3.905-10.237 3.905-14.142 0l-23.308-23.308c21.65-67.212 70.332-122.292 133.238-152.433z" fill="#7cd2e3"/><path d="m33.967 128.487 44.01 44.01-28.245 28.245c-3.905 3.905-10.237 3.905-14.142 0l-23.308-23.308c5.533-17.179 12.833-33.566 21.685-48.947z" fill="#44bfd7"/><path d="m455.175 269.206c-13.294 13.294-22.104 30.408-25.2 48.953-3.096 18.544-11.906 35.658-25.2 48.953l-75.402 75.401c-6.094 6.094-16.056 5.961-21.98-.4-5.643-6.059-5.209-15.597.645-21.451l43.037-43.037c2.012-2.013 2.012-5.275 0-7.288-2.013-2.013-5.275-2.013-7.288 0l-64.889 64.89c-6.094 6.094-16.056 5.96-21.98-.401-5.643-6.059-5.209-15.597.646-21.451l64.631-64.631c2.012-2.013 2.012-5.275 0-7.288-2.012-2.012-5.275-2.012-7.288 0l-81.087 81.084c-5.927 5.927-15.515 5.962-21.486.106-.097-.098-.194-.195-.291-.293-.068-.07-.136-.142-.204-.214-5.643-6.06-5.209-15.598.646-21.452l80.826-80.825c2.013-2.013 2.013-5.275 0-7.288s-5.275-2.013-7.288 0l-64.889 64.889c-6.094 6.094-16.056 5.96-21.98-.4-5.643-6.059-5.209-15.598.646-21.452l78.127-78.126c3.503-3.504 3.503-9.184 0-12.687s-9.183-3.503-12.686 0l-32.499 32.499c-7.454 7.453-19.538 7.453-26.992 0-4.472-4.473-4.472-11.724 0-16.195l55.88-55.881c13.486-13.485 30.898-22.353 49.737-25.327l18.954-2.993c18.839-2.975 36.251-11.841 49.737-25.327l75.696-75.696c27.2 33.889 45.955 74.846 53.07 119.68z" fill="#a65d4e"/><path d="m219.714 413.82c-3.05 3.05-4.539 7.069-4.469 11.066-1.035-.614-2.013-1.36-2.91-2.24-.097-.098-.194-.195-.291-.293-.069-.07-.136-.142-.204-.214-5.643-6.06-5.209-15.598.646-21.452l80.826-80.826c.204-.204.387-.421.549-.648 2.82-1.682 6.525-1.309 8.952 1.119 2.868 2.869 2.869 7.52 0 10.389zm41.032 23.995c-.275-4.233 1.204-8.559 4.44-11.794l66.903-66.903c2.869-2.869 2.869-7.52 0-10.389-2.466-2.466-6.249-2.813-9.085-1.039-.219.375-.489.73-.811 1.052l-64.631 64.631c-5.854 5.854-6.288 15.393-.645 21.451 1.145 1.231 2.44 2.227 3.829 2.991zm-58.025-57.91c-.101-4.035 1.388-8.103 4.467-11.182l66.903-66.903c2.869-2.869 2.869-7.52 0-10.389-2.458-2.458-6.224-2.81-9.057-1.056l-65.235 65.236c-5.854 5.854-6.288 15.393-.646 21.452 1.073 1.151 2.278 2.098 3.568 2.842zm102.615 44.364c-3.103 5.679-2.536 12.915 2.056 17.845.554.595 1.144 1.136 1.762 1.622.601-2.761 1.975-5.388 4.121-7.534l40.74-40.74c2.869-2.869 2.869-7.52 0-10.389-2.868-2.868-7.517-2.869-10.386-.003l-35.283 35.282c-1.195 1.199-2.199 2.517-3.01 3.917zm150.417-328.392-75.696 75.696c-13.486 13.486-30.898 22.353-49.737 25.327l-18.955 2.993c-18.839 2.975-36.251 11.841-49.737 25.327l-55.88 55.88c-4.472 4.472-4.473 11.723 0 16.196 1.321 1.321 2.787 2.407 4.347 3.259.404-2.207 1.459-4.318 3.165-6.024l52.948-52.949c13.486-13.485 30.898-22.353 49.737-25.327l18.955-2.994c18.839-2.974 36.251-11.84 49.737-25.327l80.131-80.131c-2.89-4.064-5.897-8.041-9.015-11.926z" fill="#915041"/></g></svg>