<?xml version="1.0" encoding="iso-8859-1"?>
<!-- Generator: Adobe Illustrator 19.0.0, SVG Export Plug-In . SVG Version: 6.00 Build 0)  -->
<svg version="1.1" id="Capa_1" xmlns="http://www.w3.org/2000/svg" xmlns:xlink="http://www.w3.org/1999/xlink" x="0px" y="0px"
	 viewBox="0 0 512.001 512.001" style="enable-background:new 0 0 512.001 512.001;" xml:space="preserve">
<g>
	<g>
		<path d="M356.833,66.742c-37.09-88.89-163.157-89.087-200.323-0.002c-10.851,26.06-11.344,56.056-0.131,83.129
			c0.044,0.123,0.08,0.248,0.131,0.369c36.686,87.934,162.887,89.713,200.323-0.001C367.731,124.347,368.156,93.929,356.833,66.742z
			 M213.926,25.348c-9.247,12.859-15.309,28.395-18.889,43.757c-7.094-1.255-14.081-2.727-20.944-4.426
			C183.049,47.866,196.986,34.093,213.926,25.348z M168.065,78.623c7.935,2.03,16.024,3.771,24.251,5.229
			c-2.212,15.988-2.288,32.74,0,49.274c-8.227,1.458-16.316,3.199-24.251,5.23C161.546,119.069,161.531,97.95,168.065,78.623z
			 M174.093,152.298c6.863-1.699,13.85-3.171,20.944-4.426c3.571,15.325,9.624,30.872,18.889,43.757
			C196.986,182.883,183.049,169.111,174.093,152.298z M249.17,200.927c-21.204-6.252-33.97-33.962-39.188-55.351
			c12.767-1.664,25.851-2.629,39.188-2.893V200.927z M249.17,127.679c-14.289,0.271-28.312,1.317-41.991,3.136
			c-2.013-14.23-2.109-29.487,0-44.653c13.68,1.817,27.701,2.863,41.991,3.135V127.679z M249.17,74.292
			c-13.338-0.264-26.422-1.228-39.188-2.893c5.305-21.724,17.996-49.101,39.188-55.349V74.292z M339.247,64.681
			c-6.861,1.698-13.847,3.17-20.941,4.424c-3.625-15.561-9.724-31.003-18.887-43.754C316.358,34.096,330.292,47.869,339.247,64.681z
			 M264.171,16.05c17.364,4.92,32.173,26.568,39.191,55.35c-12.768,1.664-25.853,2.629-39.191,2.893V16.05z M264.171,89.297
			c14.294-0.271,28.319-1.317,42.003-3.136c1.989,14.242,2.119,29.471,0.001,44.655c-13.685-1.819-27.71-2.865-42.004-3.137V89.297z
			 M264.171,200.928v-58.244c13.339,0.264,26.424,1.229,39.192,2.894C296.342,174.36,281.535,196.007,264.171,200.928z
			 M299.419,191.626c9.228-12.831,15.3-28.355,18.888-43.754c7.093,1.254,14.078,2.726,20.941,4.425
			C330.292,169.109,316.357,182.881,299.419,191.626z M345.275,138.354c-7.934-2.03-16.021-3.771-24.246-5.229
			c2.207-15.953,2.292-32.707,0-49.273c8.225-1.458,16.312-3.198,24.246-5.228C351.793,97.912,351.806,119.025,345.275,138.354z"/>
	</g>
</g>
<g>
	<g>
		<path d="M423.253,100.989h-38.751c-4.143,0-7.501,3.357-7.501,7.501c0,4.143,3.357,7.501,7.501,7.501h38.751
			c4.143,0,7.501-3.357,7.501-7.501C430.754,104.346,427.396,100.989,423.253,100.989z"/>
	</g>
</g>
<g>
	<g>
		<path d="M417.659,44.366c-1.934-3.662-6.471-5.064-10.135-3.13l-34.267,18.094c-6.905,3.645-4.265,14.135,3.509,14.135
			c2.465,0,0.297,0.818,37.762-18.964C418.192,52.567,419.594,48.029,417.659,44.366z"/>
	</g>
</g>
<g>
	<g>
		<path d="M127.504,100.989H88.752c-4.143,0-7.501,3.357-7.501,7.501c0,4.142,3.357,7.501,7.501,7.501h38.751
			c4.143,0,7.501-3.357,7.501-7.501C135.004,104.346,131.647,100.989,127.504,100.989z"/>
	</g>
</g>
<g>
	<g>
		<path d="M138.748,59.329l-34.269-18.094c-3.665-1.935-8.201-0.532-10.135,3.13c-1.935,3.664-0.533,8.202,3.13,10.135
			c37.073,19.574,35.219,18.964,37.764,18.964C143.032,73.464,145.641,62.969,138.748,59.329z"/>
	</g>
</g>
<g>
	<g>
		<path d="M414.529,159.337l-34.267-18.094c-3.666-1.936-8.202-0.532-10.135,3.13c-1.934,3.664-0.533,8.202,3.13,10.135
			c37.07,19.574,35.217,18.964,37.762,18.964C418.814,173.473,421.423,162.977,414.529,159.337z"/>
	</g>
</g>
<g>
	<g>
		<path d="M141.878,144.374c-1.933-3.662-6.472-5.067-10.135-3.13l-34.269,18.094c-3.663,1.934-5.064,6.471-3.13,10.135
			c1.932,3.662,6.47,5.066,10.135,3.13l34.269-18.093C142.411,152.575,143.812,148.038,141.878,144.374z"/>
	</g>
</g>
<g>
	<g>
		<path d="M136.207,209.541c-26.472,0-48.008,21.535-48.008,48.006s21.536,48.008,48.008,48.008
			c26.471,0,48.006-21.536,48.006-48.008C184.213,231.075,162.678,209.541,136.207,209.541z M136.207,290.553
			c-18.2,0-33.007-14.807-33.007-33.007c0-18.199,14.807-33.005,33.007-33.005c18.198,0,33.005,14.806,33.005,33.005
			C169.212,275.746,154.406,290.553,136.207,290.553z"/>
	</g>
</g>
<g>
	<g>
		<path d="M375.797,209.541c-26.471,0-48.006,21.535-48.006,48.006c0,26.472,21.535,48.008,48.006,48.008
			c26.472,0,48.008-21.536,48.008-48.008C423.805,231.075,402.269,209.541,375.797,209.541z M375.797,290.553
			c-18.198,0-33.005-14.807-33.005-33.007c0-18.199,14.806-33.005,33.005-33.005c18.199,0,33.007,14.806,33.007,33.005
			C408.804,275.746,393.997,290.553,375.797,290.553z"/>
	</g>
</g>
<g>
	<g>
		<path d="M455.55,389.276c4.143,0,7.501-3.357,7.501-7.501v-33.264c0-26.559-20.482-32.727-28.373-32.862
			c-0.043-0.001-0.086-0.001-0.129-0.001c-0.197,0-113.518-0.001-113.715,0.002c-2.701,0.069-12.033,1.04-18.685,10.653
			l-46.147,66.706l-46.148-66.704c-6.648-9.614-15.981-10.585-18.684-10.654c-0.064-0.001-0.127-0.002-0.191-0.002
			c-0.07,0-113.584-0.001-113.654,0.001c-7.892,0.136-28.373,6.304-28.373,32.862V454.02c0,10.753,8.749,19.502,19.502,19.502
			c7.712,0,8.999,0.136,11.782-0.524v31.502c0,4.143,3.357,7.501,7.501,7.501h30.004c4.143,0,7.501-3.357,7.501-7.501
			c0-4.143-3.357-7.501-7.501-7.501H95.239V454.02v-98.508c0-4.143-3.357-7.501-7.501-7.501c-4.143,0-7.501,3.357-7.501,7.501
			v98.508c0,2.481-2.019,4.5-4.5,4.5h-7.282c-2.481,0-4.5-2.019-4.5-4.5V348.513c0-12.006,6.223-17.355,13.615-17.861h113.288
			c0.792,0.035,4.049,0.415,6.66,4.188l49.362,71.356c-0.377,0.545-9.563,13.81-9.9,14.336l-46.14-66.694
			c-4.171-6.031-13.669-3.064-13.669,4.267V497h-24.428c-4.143,0-7.501,3.357-7.501,7.501c0,4.143,3.357,7.501,7.501,7.501h31.929
			c4.143,0,7.501-3.357,7.501-7.501v-122.37l44.321,64.065c9.289,13.433,29.771,13.365,39.012,0.001l44.322-64.066v122.37
			c0,4.143,3.358,7.501,7.501,7.501h96.936c4.143,0,7.501-3.357,7.501-7.501v-31.502c2.782,0.66,4.064,0.524,11.782,0.524
			c10.753,0,19.502-8.749,19.502-19.502v-37.241c0-4.143-3.357-7.501-7.501-7.501c-4.143,0-7.501,3.357-7.501,7.501v37.241
			c0,2.481-2.019,4.5-4.5,4.5h-7.282c-2.482,0-4.5-2.019-4.5-4.5v-98.508c0-4.143-3.357-7.501-7.501-7.501s-7.501,3.357-7.501,7.501
			c0,7.312,0,134.226,0,141.487h-81.935V358.104c0-7.333-9.501-10.296-13.669-4.267c-62.242,89.969-58.523,85.914-62.467,87.028
			c-7.316,2.073-13.265-6.201-8.926-12.476l64.719-93.551c2.608-3.771,5.865-4.151,6.657-4.186
			c122.266,0,115.271-0.929,120.393,2.46c4.32,2.859,6.512,8.042,6.512,15.401v33.264
			C448.049,385.919,451.407,389.276,455.55,389.276z"/>
	</g>
</g>
<g>
</g>
<g>
</g>
<g>
</g>
<g>
</g>
<g>
</g>
<g>
</g>
<g>
</g>
<g>
</g>
<g>
</g>
<g>
</g>
<g>
</g>
<g>
</g>
<g>
</g>
<g>
</g>
<g>
</g>
</svg>
