<svg id="Capa_1" enable-background="new 0 0 512 512" height="512" viewBox="0 0 512 512" width="512" xmlns="http://www.w3.org/2000/svg"><g><path d="m0 256c0-141.384 114.615-256 255.999-256 141.578 0 256.749 115.811 255.997 257.388-.437 82.372-39.778 155.537-100.584 202.057-6.072 4.645-14.146 5.756-21.291 3.037-40.712-15.489-86.168-24.146-134.121-24.146-47.991 0-93.483 8.67-134.22 24.184-7.086 2.699-15.093 1.587-21.117-3.018-61.191-46.779-100.663-120.531-100.663-203.502z" fill="#84b017"/><path d="m402.778 308.586c0 81.063-65.715 146.778-146.778 146.778s-146.778-65.715-146.778-146.778 65.715-146.777 146.778-146.777 146.778 65.714 146.778 146.777z" fill="#9bcf1b"/><path d="m256 310c-5.523 0-10-4.477-10-10v-290c0-5.523 4.477-10 10-10 5.523 0 10 4.477 10 10v290c0 5.523-4.477 10-10 10zm-84.005-51.653c2.441-1.29 3.374-4.315 2.083-6.757l-73.658-139.33c-.866-1.638-2.567-2.663-4.42-2.663s-3.554 1.025-4.42 2.663l-73.658 139.33c-1.291 2.441-.358 5.467 2.083 6.757 2.441 1.292 5.466.358 6.757-2.083l69.238-130.969 69.237 130.969c.897 1.696 2.631 2.664 4.425 2.664.788 0 1.588-.187 2.333-.581zm320 0c2.441-1.29 3.374-4.315 2.083-6.757l-73.658-139.33c-.865-1.639-2.566-2.663-4.42-2.663s-3.555 1.024-4.42 2.663l-73.658 139.33c-1.291 2.441-.358 5.467 2.083 6.757 2.441 1.294 5.467.358 6.757-2.083l69.238-130.969 69.238 130.969c.896 1.696 2.63 2.664 4.424 2.664.788 0 1.588-.187 2.333-.581z" fill="#f29500"/><path d="m40 90c0-5.523 4.477-10 10-10h196v-42.83c0-5.523 4.477-10 10-10s10 4.477 10 10v42.83h196c5.523 0 10 4.477 10 10s-4.477 10-10 10h-196v95c0 5.523-4.477 10-10 10s-10-4.477-10-10v-95h-196c-5.523 0-10-4.477-10-10zm286 158c9.705 40.711 46.317 70.985 90 70.985s80.295-30.274 90-70.985zm34 127h-79v-60c0-13.807-11.193-25-25-25s-25 11.193-25 25v60h-81c-11.046 0-20 8.954-20 20s8.954 20 20 20h210c11.046 0 20-8.954 20-20s-8.954-20-20-20zm-174-127h-180c9.705 40.711 46.317 70.985 90 70.985s80.295-30.274 90-70.985z" fill="#ffb52d"/><path d="m381 90c0 5.523-4.477 10-10 10h-201.434c-5.523 0-10-4.477-10-10s4.477-10 10-10h201.434c5.523 0 10 4.478 10 10zm-20 325h-146c-11.046 0-20-8.954-20-20s8.954-20 20-20h146c11.046 0 20 8.954 20 20s-8.954 20-20 20zm87-101.699c28.754-10.6 50.794-35.073 58-65.301h-116c7.206 30.228 29.246 54.702 58 65.301zm-378-65.301h116c-7.206 30.228-29.246 54.702-58 65.301-28.754-10.599-50.794-35.073-58-65.301z" fill="#ffc14f"/><path d="m256 130c-13.807 0-25-11.193-25-25v-30c0-13.807 11.193-25 25-25 13.807 0 25 11.193 25 25v30c0 13.807-11.193 25-25 25zm40 240c0-4.142-3.358-7.5-7.5-7.5h-65c-4.142 0-7.5 3.358-7.5 7.5 0 4.142 3.358 7.5 7.5 7.5h65c4.142 0 7.5-3.358 7.5-7.5zm-200-240c-5.523 0-10-4.477-10-10v-40c0-5.523 4.477-10 10-10 5.523 0 10 4.477 10 10v40c0 5.523-4.477 10-10 10zm320 0c-5.523 0-10-4.477-10-10v-40c0-5.523 4.477-10 10-10 5.523 0 10 4.477 10 10v40c0 5.523-4.477 10-10 10zm-224 116.5c0-4.142-3.358-7.5-7.5-7.5h-177c-4.142 0-7.5 3.358-7.5 7.5 0 4.142 3.358 7.5 7.5 7.5h177c4.142 0 7.5-3.358 7.5-7.5zm312.5 7.5h-177c-4.142 0-7.5-3.358-7.5-7.5 0-4.142 3.358-7.5 7.5-7.5h177c4.142 0 7.5 3.358 7.5 7.5 0 4.142-3.358 7.5-7.5 7.5z" fill="#ffcd71"/><path d="m281 75v30c0 9.458-5.253 17.69-13 21.937-7.747-4.247-13-12.478-13-21.937v-30c0-9.458 5.253-17.69 13-21.937 7.747 4.247 13 12.479 13 21.937zm200.362 171.5c0-4.142-3.358-7.5-7.5-7.5h-95.808c-4.142 0-7.5 3.358-7.5 7.5s3.358 7.5 7.5 7.5h95.808c4.142 0 7.5-3.358 7.5-7.5zm-320 0c0-4.142-3.358-7.5-7.5-7.5h-95.809c-4.142 0-7.5 3.358-7.5 7.5s3.358 7.5 7.5 7.5h95.808c4.143 0 7.501-3.358 7.501-7.5z" fill="#ffd993"/><path d="m412 425v33.994c-43.189 33.24-97.286 53.006-156 53.006s-112.811-19.766-156-53.006v-33.994c0-8.284 6.716-15 15-15h282c8.284 0 15 6.716 15 15z" fill="#875b51"/><path d="m388.06 443.29c.128 4.247-3.278 7.731-7.497 7.731h-239.542c-6.087 0-11.021 4.934-11.021 11.021v16.854c-10.483-5.938-20.505-12.595-30-19.903v-33.993c0-8.284 6.716-15 15-15h30c-8.284 0-15 6.716-15 15 0 6.087 4.934 11.021 11.021 11.021h239.228c4.107 0 7.688 3.165 7.811 7.269z" fill="#724d44"/></g></svg>