<svg id="Capa_1" enable-background="new 0 0 512 512" height="512" viewBox="0 0 512 512" width="512" xmlns="http://www.w3.org/2000/svg"><g><path d="m512 256c0 141.385-114.615 256-256 256s-256-114.615-256-256 114.615-256 256-256 256 114.615 256 256z" fill="#203e76"/><path d="m469.219 272.969c0 112.585-91.268 203.852-203.852 203.852s-203.853-91.268-203.853-203.852 91.268-203.853 203.852-203.853 203.853 91.268 203.853 203.853z" fill="#274c91"/><path d="m507 211.241c0 115.25-93.428 208.678-208.677 208.678s-208.677-93.428-208.677-208.678c0-115.249 93.428-208.677 208.677-208.677 115.249 0 208.677 93.428 208.677 208.677z" fill="#60c8dd"/><path d="m432.318 331.018c7.819 4.052 16.523 9.061 25.515 14.777-38.279 45.333-95.532 74.125-159.51 74.125-9.256 0-18.371-.604-27.308-1.772 6.516-14.106 12.802-31.102 8.668-53.624-5.626-30.658-24.655-39.392-19.545-51.188 10.226-23.611 99.922-19.76 172.18 17.682zm-107.961-45.605c10.188 1.859 51.925 8.152 110.754-26.06 18.248-10.612 47.141-27.415 71.878-50.215-.898-91.013-60.061-168.081-141.974-195.69-30.032 15.179-52.057 39.566-54.619 63.487-3.366 31.434 29.217 40.208 27.921 76.318-1.884 52.533-72.363 76.296-63.288 106.1 5.501 18.065 35.731 23.58 49.328 26.06zm-107.797-266.221c-74.612 31.805-126.915 105.819-126.915 192.049 0 54.577 20.952 104.259 55.25 141.444 28.607-22.335 50.208-53.379 48.232-79.372-2.71-35.642-49.051-52.539-43.743-92.14 2.825-21.073 18.574-35.883 27.921-44.674 35.926-33.784 71.753-22.912 80.041-41.881 7.586-17.362-11.05-52.518-40.786-75.426z" fill="#9bcf1b"/><path d="m298.323 0c-117.823 0-213.677 95.855-213.677 213.678s95.854 213.677 213.677 213.677 213.677-95.855 213.677-213.677-95.855-213.678-213.677-213.678zm0 417.355c-22.688 0-43.4-29.353-57.214-74.616 18.609 2.375 37.76 3.592 57.214 3.592s38.604-1.217 57.214-3.592c-13.814 45.264-34.527 74.616-57.214 74.616zm-60.303-85.433c-7.552-28.306-12.535-61.857-13.917-97.838 23.94 3.785 48.837 5.736 74.219 5.736s50.28-1.951 74.219-5.736c-1.38 35.922-6.349 69.423-13.88 97.699-39.66 5.484-81.015 5.543-120.641.139zm-14.211-108.092c-.064-3.367-.096-6.751-.096-10.152 0-32.834 3.022-64.153 8.332-91.954 21.255 3.782 43.524 5.74 66.278 5.74s45.023-1.958 66.278-5.74c5.31 27.801 8.332 59.12 8.332 91.954 0 3.401-.032 6.786-.096 10.152-48.723 7.924-100.306 7.924-149.028 0zm-86.235-135.098c24.562 14.077 53.319 24.58 84.517 31.071-5.481 28.834-8.378 60.785-8.378 93.874 0 2.809.021 5.609.063 8.4-42.384-7.913-82.261-21.926-115.765-42.042-.176-.105-.357-.199-.54-.281 5.706-33.896 19.815-64.978 40.103-91.022zm160.749-78.732c26.972 0 51.153 41.487 64.269 101.873-41.877 7.424-86.661 7.424-128.538 0 13.116-60.386 37.297-101.873 64.269-101.873zm76.231 109.804c31.198-6.491 59.956-16.994 84.517-31.071 20.289 26.043 34.397 57.125 40.104 91.023-.183.082-.364.175-.54.281-33.504 20.116-73.381 34.129-115.765 42.042.042-2.792.063-5.592.063-8.4 0-33.09-2.898-65.041-8.379-93.875zm78.086-38.92c-23.699 13.342-51.063 23.032-80.084 29.07-3.565-16.492-8.009-31.832-13.268-45.616-9.118-23.901-20.169-41.616-32.389-52.34 50.008 7.052 94.242 32.334 125.741 68.886zm-182.892-68.886c-12.22 10.724-23.271 28.439-32.389 52.34-5.259 13.785-9.703 29.124-13.268 45.616-29.021-6.038-56.385-15.728-80.084-29.07 31.497-36.552 75.731-61.834 125.741-68.886zm-173.785 178.446c33.821 19.726 74.179 33.952 118.061 41.928 1.177 35.245 5.673 68.718 13.092 97.917-43.013-7.021-83.574-20.596-117.182-40.774-.261-.156-.53-.286-.804-.39-9.342-23.344-14.484-48.807-14.484-75.447 0-7.855.447-15.608 1.317-23.234zm20.063 114.033c33.017 17.755 71.991 30.231 114.052 36.71 2.217 7.633 4.646 14.927 7.28 21.831 9.118 23.901 20.169 41.616 32.389 52.34-67.425-9.507-124.351-52.154-153.721-110.881zm210.872 110.88c12.22-10.724 23.271-28.438 32.389-52.34 2.634-6.904 5.063-14.197 7.28-21.831 42.061-6.479 81.035-18.955 114.052-36.71-29.369 58.728-86.296 101.375-153.721 110.881zm160.644-126.295c-33.843 20.227-74.689 33.933-117.972 41.069 7.395-29.162 11.877-62.579 13.052-97.759 43.883-7.976 84.241-22.202 118.062-41.928.87 7.626 1.317 15.379 1.317 23.234-.001 26.616-5.133 52.057-14.459 75.384z" fill="#6e9e50"/><path d="m18.099 339.609c-1.639-13.633 8.085-26.014 21.718-27.652 9.17-1.102 18.194 2.969 23.437 10.573l45.396 65.843-74.725-28.5c-8.63-3.291-14.724-11.094-15.826-20.264zm0 97.568c-1.639 13.633 8.085 26.014 21.718 27.653 9.17 1.102 18.194-2.969 23.437-10.573l45.396-65.843-74.725 28.5c-8.63 3.291-14.724 11.094-15.826 20.263zm362.771-204.005c-59.2 32.346-132.904 34.685-196.004.583-13.949 56.214 9.732 117.212 62.133 148.229 60.01 35.521 136.372 19.107 176.869-35.859l-12.401-7.34c17.428-13.354 31.75-31.077 41.096-52.224l-9.849-3.216c17.508-20.33 29.045-45.948 31.888-74.134h-1.701c-32.218.001-63.756 8.512-92.031 23.961z" fill="#a6e0ec"/><path d="m108.797 388.396-.134-.011-61.914 50.35c-7.165 5.827-16.97 7.202-25.462 3.571-12.626-5.398-18.484-20.01-13.086-32.636 3.631-8.492 11.67-14.271 20.875-15.009l78.971-6.326-78.971-6.326c-9.206-.737-17.245-6.517-20.875-15.009-5.399-12.625.46-27.237 13.086-32.636 8.492-3.631 18.297-2.255 25.462 3.571l61.914 50.35.134-.011-.074.06zm76.069-154.641c-7.774 31.329-3.86 64.143 10.199 92.425 20.283 6.314 41.849 9.715 64.21 9.715 87.077 0 162.106-51.581 196.201-125.855-26.112 2.482-51.453 10.48-74.606 23.131-59.2 32.347-132.903 34.686-196.004.584z" fill="#c2eaf2"/><path d="m335.756 197.425-6.555 6.555c-4.857 4.856-10.613 8.265-16.733 10.226 14.485 55.52-.024 117.037-43.528 160.541-54.677 54.676-137.81 63.552-201.726 26.628l-34.971 10.872c-8.819 2.742-18.431.369-24.962-6.162-9.71-9.709-9.71-25.452 0-35.161 6.531-6.531 16.143-8.903 24.962-6.162l26.175 8.137 55.63-55.629c-43.249-28.275-67.444-79.915-59.441-132.718l13.959 3.579c-2.881-21.767-.476-44.426 7.868-65.987l9.239 4.69c1.995-26.755 11.952-53.029 29.872-74.969l1.203 1.203c22.654 22.654 39.046 50.737 47.984 81.502 9.12 31.394 25.638 60.229 48.052 83.966l10.969-10.969c15.416-15.416 28.875-32.799 38.858-52.181 1.929-3.745 4.463-7.259 7.601-10.398l6.555-6.555c16.29-16.29 42.701-16.29 58.991 0 16.288 16.291 16.288 42.702-.002 58.992z" fill="#def4f8"/><path d="m317.211 241.404c4.315 47.674-11.775 96.847-48.27 133.342-32.609 32.609-75.34 48.927-118.079 48.955-4.314-47.674 11.775-96.847 48.27-133.342.049-.049.098-.098.147-.147 5.794-5.78 3.42-15.536-4.373-18.035-51.553-16.535-88.869-64.863-88.869-121.908 0-29.629 10.067-56.906 26.967-78.599 14.414 18.9 25.138 40.441 31.878 63.417 11.25 38.351 33.548 72.855 64.147 98.873 13.833 11.762 32.438 15.969 50.119 11.839 12.507-2.922 25.285-4.387 38.063-4.395zm18.545-102.97c-3.411-3.411-7.266-6.107-11.378-8.089-6.21 1.948-12.054 5.381-16.975 10.302l-6.555 6.555c-16.29 16.29-16.29 42.701 0 58.991 3.411 3.411 7.266 6.107 11.378 8.09 6.21-1.948 12.054-5.382 16.975-10.302l6.555-6.555c16.29-16.291 16.29-42.702 0-58.992z" fill="#fff"/><path d="m308.16 155.085c0 4.142-3.358 7.5-7.5 7.5s-7.5-3.358-7.5-7.5 3.358-7.5 7.5-7.5 7.5 3.358 7.5 7.5z" fill="#6990d7"/><path d="m370.445 172.313-28.341 16.971-13.397-16.971 17.33-16.971z" fill="#c2eaf2"/><path d="m370.445 172.313-28.341 16.971-13.397-16.971z" fill="#a6e0ec"/></g></svg>