<svg id="Capa_1" enable-background="new 0 0 512 512" height="512" viewBox="0 0 512 512" width="512" xmlns="http://www.w3.org/2000/svg"><g><path d="m0 256c0-141.384 114.615-256 255.999-256 141.234 0 257.238 117.08 255.991 258.308-.935 105.858-66.12 196.377-158.454 234.455-4.245 1.751-8.987 1.817-13.324.307-26.373-9.183-54.71-14.174-84.212-14.174-28.058 0-55.062 4.514-80.325 12.855-7.079 2.337-14.775 2.119-21.612-.852-90.661-39.396-154.063-129.744-154.063-234.899z" fill="#faa68e"/><path d="m472.573 240c0 116.438-94.392 210.83-210.83 210.83s-210.83-94.392-210.83-210.83 94.392-210.83 210.83-210.83 210.83 94.392 210.83 210.83z" fill="#ffbeaa"/><path d="m386.197 118.939v120.427c0 23.771-7.531 46.93-21.512 66.154l-14.067 19.342c-13.981 19.224-21.512 42.384-21.512 66.154v57.196c-23.837 5.685-48.711 8.695-74.289 8.695-26.892 0-53.006-3.327-77.955-9.592v-76.141c0-23.432-7.319-46.28-20.934-65.351-13.615-19.071-20.934-41.918-20.934-65.351v-154.836c0-10.74 8.898-19.403 19.724-19.018 10.313.367 18.337 9.155 18.337 19.474v97.789c0 3.547 2.876 6.423 6.423 6.423s6.423-2.875 6.423-6.423v-136.306c0-10.74 8.898-19.403 19.724-19.018 10.313.367 18.337 9.155 18.337 19.474v135.85c0 3.547 2.876 6.423 6.423 6.423s6.423-2.875 6.423-6.423v-164.852c0-10.447 8.418-18.928 18.841-19.029.172 0 .343.001.514.002.123.002.245.005.369.009 10.313.367 18.337 9.155 18.337 19.474v164.396c0 3.547 2.876 6.423 6.423 6.423s6.423-2.875 6.423-6.423v-136.306c0-10.74 8.898-19.403 19.724-19.018 10.313.367 18.337 9.155 18.337 19.474v159.638c0 6.175 5.006 11.18 11.18 11.18s11.18-5.006 11.18-11.18v-79.215c0-13.138 10.65-23.788 23.788-23.788 7.883.001 14.273 6.391 14.273 14.273z" fill="#915041"/><path d="m205.626 28.569c1.819.065 3.566.392 5.211.942-4.056 3.49-6.624 8.66-6.624 14.431v139.855c0 5.057-4.099 9.156-9.156 9.156-5.056 0-9.156-4.099-9.156-9.156v-136.21c0-10.74 8.898-19.403 19.725-19.018zm-31.387 273.609c-13.615-19.071-20.934-41.918-20.934-65.351v-154.837c0-5.77 2.568-10.94 6.624-14.43-1.645-.551-3.392-.878-5.211-.942-10.827-.385-19.724 8.278-19.724 19.018v154.836c0 23.432 7.319 46.28 20.934 65.351 13.615 19.071 20.934 41.918 20.934 65.351v76.141c6.037 1.516 12.143 2.86 18.311 4.026v-83.812c0-23.433-7.319-46.28-20.934-65.351zm133.2-273.609c-10.827-.385-19.724 8.278-19.724 19.018v136.21c0 5.057 4.099 9.156 9.156 9.156s9.156-4.099 9.156-9.156v-139.855c0-5.771 2.568-10.941 6.624-14.431-1.646-.55-3.394-.877-5.212-.942zm-70.631-9.527v164.756c0 5.057 4.099 9.156 9.156 9.156s9.156-4.099 9.156-9.156v-168.402c0-5.77 2.568-10.94 6.624-14.43-1.645-.551-3.392-.878-5.211-.942-10.827-.386-19.725 8.277-19.725 19.018z" fill="#784132"/><path d="m436.201 225.685-339.729 84.167c-2.68.664-5.392-.971-6.056-3.651l-31.262-126.185c-.664-2.68.97-5.392 3.651-6.056l339.729-84.167c2.68-.664 5.392.97 6.056 3.651l31.262 126.185c.664 2.68-.97 5.392-3.651 6.056z" fill="#adcc99"/><path d="m436.201 225.685-204.808 50.741c-37.525 9.297-75.482-13.587-84.779-51.112-9.297-37.525 13.587-75.482 51.112-84.779l204.808-50.741c2.68-.664 5.392.97 6.056 3.651l31.262 126.185c.664 2.679-.97 5.391-3.651 6.055z" fill="#c8ddbb"/><path d="m403.475 218.339-281.49 69.739c-2.656-10.721-13.501-17.26-24.223-14.604l-16.834-67.946c10.722-2.656 17.26-13.501 14.604-24.223l281.49-69.739c2.656 10.721 13.501 17.26 24.223 14.604l16.833 67.946c-10.721 2.657-17.26 13.502-14.603 24.223z" fill="#9ac083"/><path d="m340.064 486.936h-172c-2.761 0-5-2.239-5-5v-90c0-2.761 2.239-5 5-5h172c2.761 0 5 2.239 5 5v90c0 2.762-2.239 5-5 5z" fill="#def4f8"/><path d="m198.009 486.936h-29.945c-2.761 0-5-2.239-5-5v-90c0-2.761 2.239-5 5-5h34.945v95c0 2.762-2.239 5-5 5z" fill="#a6e0ec"/><path d="m355.064 436.936v55.192c-30.472 12.799-63.942 19.872-99.064 19.872-36.616 0-71.437-7.688-102.936-21.537v-53.527c0-5.523 4.477-10 10-10h182c5.523 0 10 4.477 10 10z" fill="#6990d7"/><path d="m163.064 426.936h39.945v79.573c-17.361-3.654-34.075-9.068-49.945-16.045v-53.527c0-5.524 4.477-10.001 10-10.001z" fill="#4172cc"/><path d="m436 92.088v130c0 2.761-2.239 5-5 5h-350c-2.761 0-5-2.239-5-5v-130c0-2.761 2.239-5 5-5h350c2.762 0 5 2.239 5 5z" fill="#dbf3a0"/><path d="m436 92.088v130c0 2.761-2.239 5-5 5h-211c-38.66 0-70-31.34-70-70 0-38.66 31.34-70 70-70h211c2.762 0 5 2.239 5 5z" fill="#f2fbdc"/><path d="m401 212.088h-290c0-11.046-8.954-20-20-20v-70c11.046 0 20-8.954 20-20h290c0 11.046 8.954 20 20 20v70c-11.046 0-20 8.955-20 20z" fill="#b9e746"/><path d="m421 122.088v70c-11.046 0-20 8.954-20 20h-224.306c-16.257-12.818-26.694-32.69-26.694-55 0-22.31 10.437-42.182 26.694-55h224.306c0 11.046 8.955 20 20 20z" fill="#caed73"/><path d="m286 147.088v20c0 16.569-13.431 30-30 30s-30-13.431-30-30v-20c0-16.569 13.431-30 30-30s30 13.432 30 30z" fill="#9bcf1b"/><path d="m191 157.088c0 11.046-8.954 20-20 20h-13.333c-11.046 0-20-8.954-20-20 0-11.046 8.954-20 20-20h13.333c11.046 0 20 8.955 20 20zm163.334-20h-13.334c-11.046 0-20 8.954-20 20 0 11.046 8.954 20 20 20h13.333c11.046 0 20-8.954 20-20 0-11.045-8.954-20-19.999-20z" fill="#88b56c"/><path d="m276 150.422v13.333c0 11.046-8.954 20-20 20s-20-8.954-20-20v-13.333c0-11.046 8.954-20 20-20s20 8.954 20 20z" fill="#6e9e50"/><path d="m386.197 118.939v120.427c0 23.771-7.531 46.93-21.512 66.154l-14.067 19.342c-3.516 4.834-6.623 9.917-9.306 15.196-8.242 16.218-25.103 26.237-43.294 26.237-26.973 0-48.84-21.866-48.84-48.84v-10.874c0-47.071 30.105-65.645 91.203-88.241 4.559-1.686 7.756-5.811 7.756-10.672v-79.215c0-13.138 10.65-23.788 23.788-23.788 7.882.002 14.272 6.392 14.272 14.274z" fill="#a65d4e"/><path d="m307.73 238.404c-35.909 5.336-60.783 38.89-55.449 74.799.406 2.731-1.479 5.274-4.211 5.68-.249.037-.497.056-.741.056-2.437 0-4.57-1.784-4.939-4.267-6.145-41.362 22.507-80.013 63.871-86.158 2.73-.406 5.275 1.479 5.681 4.211.405 2.731-1.48 5.274-4.212 5.679z" fill="#784132"/><path d="m386.197 133.212c-7.883 0-14.273-6.39-14.273-14.273v-11.557c0-3.941 3.195-7.136 7.136-7.136 3.941 0 7.136 3.195 7.136 7.136v25.83z" fill="#b46e5a"/><path d="m135 285c0 22.091-17.909 40-40 40s-40-17.909-40-40 17.909-40 40-40 40 17.909 40 40z" fill="#6990d7"/><path d="m118.617 285c0 13.043-10.574 23.617-23.617 23.617s-23.617-10.574-23.617-23.617 10.574-23.617 23.617-23.617 23.617 10.574 23.617 23.617z" fill="#91aee2"/><path d="m95 240c-24.813 0-45 20.187-45 45s20.187 45 45 45 45-20.187 45-45-20.187-45-45-45zm0 80c-19.299 0-35-15.701-35-35s15.701-35 35-35 35 15.701 35 35-15.701 35-35 35zm5-55v40c0 2.761-2.239 5-5 5s-5-2.239-5-5v-40c0-2.761 2.239-5 5-5s5 2.239 5 5z" fill="#bacbec"/><path d="m125 380c0 13.807-11.193 25-25 25s-25-11.193-25-25 11.193-25 25-25 25 11.193 25 25z" fill="#bacbec"/><path d="m100 350c-16.542 0-30 13.458-30 30s13.458 30 30 30 30-13.458 30-30-13.458-30-30-30zm0 50c-11.028 0-20-8.972-20-20s8.972-20 20-20 20 8.972 20 20-8.972 20-20 20zm5-30v20c0 2.761-2.239 5-5 5s-5-2.239-5-5v-20c0-2.761 2.239-5 5-5s5 2.239 5 5z" fill="#fff5f5"/></g></svg>