<svg id="Capa_1" enable-background="new 0 0 512 512" height="512" viewBox="0 0 512 512" width="512" xmlns="http://www.w3.org/2000/svg"><g><path d="m0 256c0-141.384 114.615-256 255.999-256 74.746 0 142.136 32.281 188.99 83.594 1.573 1.723-2.56 7.437-1.033 9.203 8.072 9.336 15.483 19.258 22.159 29.692 1.476 2.307 8.6.67 10.003 3.026 22.976 38.578 36.102 83.649 35.88 131.694-.384 82.938-40.207 156.557-101.68 203.068-5.354 4.051-12.267 5.387-18.768 3.714-42.101-10.834-87.796-16.768-135.549-16.768-47.683 0-93.314 5.917-135.365 16.721-6.623 1.702-13.665.34-19.115-3.79-61.68-46.743-101.521-120.796-101.521-204.154z" fill="#44bfd7"/><path d="m410.176 278.423c0 105.671-85.663 191.334-191.334 191.334s-191.335-85.663-191.335-191.334 85.663-191.335 191.335-191.335 191.334 85.664 191.334 191.335z" fill="#7cd2e3"/><path d="m263.173 274.178-9.645 21.804c-1.546 3.494-.716 7.584 2.068 10.2l17.376 16.325c4.108 3.86 3.698 10.503-.855 13.828l-19.255 14.061c-3.086 2.253-4.412 6.21-3.309 9.868l6.886 22.826c1.628 5.397-2.049 10.945-7.654 11.548l-23.705 2.55c-3.799.409-6.926 3.171-7.799 6.891l-5.45 23.211c-1.289 5.488-7.247 8.454-12.402 6.174l-21.804-9.645c-3.494-1.546-7.584-.716-10.2 2.068l-16.325 17.375c-3.86 4.108-10.503 3.698-13.828-.855l-14.061-19.255c-2.253-3.086-6.209-4.412-9.868-3.309l-22.826 6.886c-5.397 1.628-10.945-2.049-11.548-7.654l-2.55-23.706c-.409-3.799-3.171-6.926-6.891-7.799l-23.211-5.45c-5.488-1.289-8.454-7.247-6.174-12.402l9.645-21.804c1.546-3.494.716-7.584-2.068-10.2l-17.376-16.325c-4.108-3.86-3.698-10.503.855-13.828l19.255-14.061c3.086-2.253 4.412-6.21 3.309-9.868l-6.886-22.826c-1.628-5.397 2.049-10.945 7.654-11.548l23.705-2.55c3.799-.409 6.926-3.171 7.799-6.891l5.45-23.211c1.289-5.488 7.247-8.454 12.402-6.174l21.804 9.645c3.494 1.546 7.584.716 10.2-2.068l16.325-17.376c3.86-4.108 10.503-3.698 13.828.855l14.061 19.255c2.253 3.086 6.209 4.412 9.868 3.309l22.826-6.886c5.397-1.628 10.945 2.049 11.548 7.654l2.55 23.705c.409 3.799 3.171 6.926 6.891 7.799l23.211 5.45c5.488 1.29 8.454 7.249 6.174 12.404z" fill="#def4f8"/><path d="m216.294 307.882-5.59 12.638c-.896 2.025-.415 4.396 1.199 5.912l10.072 9.462c2.381 2.237 2.143 6.088-.495 8.015l-11.16 8.15c-1.789 1.306-2.557 3.599-1.918 5.719l3.991 13.23c.944 3.128-1.188 6.344-4.436 6.693l-13.74 1.478c-2.202.237-4.014 1.838-4.521 3.994l-3.159 13.453c-.747 3.181-4.201 4.9-7.189 3.578l-12.638-5.59c-2.025-.896-4.396-.415-5.912 1.199l-9.462 10.072c-2.237 2.381-6.088 2.143-8.015-.495l-8.15-11.16c-1.306-1.789-3.599-2.557-5.719-1.918l-13.23 3.991c-3.128.944-6.344-1.188-6.693-4.436l-1.478-13.74c-.237-2.202-1.838-4.014-3.994-4.521l-13.453-3.159c-3.181-.747-4.9-4.201-3.578-7.189l5.59-12.638c.896-2.025.415-4.396-1.199-5.912l-10.072-9.462c-2.381-2.237-2.143-6.088.495-8.015l11.16-8.15c1.789-1.306 2.557-3.599 1.918-5.719l-3.991-13.23c-.944-3.128 1.188-6.344 4.436-6.693l13.74-1.478c2.202-.237 4.014-1.838 4.521-3.994l3.159-13.453c.747-3.181 4.201-4.9 7.189-3.578l12.638 5.59c2.025.896 4.396.415 5.912-1.199l9.462-10.072c2.237-2.381 6.088-2.143 8.015.495l8.15 11.16c1.306 1.789 3.599 2.557 5.719 1.918l13.23-3.991c3.128-.944 6.344 1.188 6.693 4.436l1.478 13.74c.237 2.202 1.838 4.014 3.994 4.521l13.453 3.159c3.18.747 4.9 4.201 3.578 7.189z" fill="#fff5f5"/><path d="m360 415h-210c-11.046 0-20-8.954-20-20 0-11.046 8.954-20 20-20h210c11.046 0 20 8.954 20 20 0 11.046-8.954 20-20 20z" fill="#ffb52d"/><path d="m331.383 415h-99.064c-11.046 0-20-8.954-20-20 0-11.046 8.954-20 20-20h99.064c11.046 0 20 8.954 20 20 0 11.046-8.954 20-20 20z" fill="#ffc14f"/><path d="m412 458.994c-43.189 33.24-97.286 53.006-156 53.006s-112.811-19.766-156-53.006v-33.994c0-8.284 6.716-15 15-15h282c8.284 0 15 6.716 15 15z" fill="#875b51"/><g fill="#724d44"><path d="m393.592 443.656c-.123 4.105-3.704 7.269-7.811 7.269h-244.855c-6.034 0-10.926 4.892-10.926 10.926v17.045c-10.483-5.938-20.505-12.595-30-19.903v-33.993c0-8.284 6.716-15 15-15h30c-8.284 0-15 6.716-15 15 0 6.034 4.892 10.926 10.926 10.926h245.17c4.218 0 7.624 3.483 7.496 7.73z"/><path d="m476.117 125.515-68.801 24.836c-9.527 3.439-19.872.685-26.454-6.317l-179.792 64.821c-5.195 1.875-10.926-.816-12.801-6.01-1.875-5.195.816-10.926 6.011-12.801l179.73-64.798c.541-9.576 6.624-18.42 16.3-21.913l54.679-19.738c11.721 12.848 22.195 26.88 31.128 41.92z"/><path d="m185.929 325.953-94.059 33.953c-7.792 2.813-16.389-1.224-19.202-9.016l-67.907-188.118c-2.813-7.792 1.224-16.389 9.016-19.202l94.059-33.954c7.792-2.813 16.389 1.224 19.202 9.016l67.908 188.118c2.812 7.793-1.225 16.39-9.017 19.203z"/></g><path d="m133.524 285.333c-26.234 9.47-55.177-4.12-64.647-30.353l-36.84-102.054c-2.813-7.792 1.224-16.389 9.016-19.202l66.782-24.107c7.792-2.813 16.389 1.224 19.202 9.016l36.84 102.054c9.47 26.233-4.119 55.176-30.353 64.646zm63.527-2.2c-1.406-3.896-5.705-5.914-9.601-4.508l-126.98 45.837c-3.896 1.406-5.914 5.705-4.508 9.601 1.406 3.896 5.705 5.914 9.601 4.508l126.98-45.838c3.896-1.406 5.914-5.704 4.508-9.6z" fill="#875b51"/><path d="m282.328 168.891c-4.688-12.987 2.039-27.315 15.026-32.003l98.762-35.651c12.987-4.688 27.315 2.039 32.003 15.026 4.688 12.987-2.039 27.315-15.026 32.003l-98.762 35.652c-12.987 4.687-27.315-2.04-32.003-15.027zm-137.304 76.143 47.03-16.977c12.987-4.688 19.714-19.016 15.026-32.003-4.688-12.987-19.016-19.714-32.003-15.026l-47.03 16.977c-12.987 4.688-19.714 19.016-15.026 32.003 4.688 12.987 19.016 19.714 32.003 15.026z" fill="#875b51"/><path d="m141.536 129.346c1.406 3.896-.612 8.195-4.508 9.601l-126.98 45.838c-3.896 1.406-8.195-.612-9.601-4.508-1.406-3.896.612-8.195 4.508-9.601l126.98-45.838c3.897-1.407 8.195.612 9.601 4.508zm39.609 105.307-18.675-51.733c-1.406-3.896-5.705-5.914-9.601-4.508s-5.914 5.705-4.508 9.601l18.675 51.732c1.406 3.896 5.705 5.914 9.601 4.508 3.896-1.405 5.915-5.704 4.508-9.6z" fill="#67463e"/><path d="m342.661 100.682c-3.204 1.499-7.017.116-8.515-3.088l-12.663-27.075c-1.499-3.204-.116-7.017 3.088-8.515 3.204-1.499 7.016-.116 8.515 3.088l12.663 27.075c1.499 3.204.116 7.017-3.088 8.515zm38.535-46.542c-3.325-1.206-6.999.512-8.205 3.837l-7.132 19.666c-1.206 3.325.512 6.999 3.837 8.205s6.999-.512 8.205-3.837l7.132-19.666c1.207-3.325-.511-6.999-3.837-8.205zm-71.089 49.578-19.666-7.132c-3.325-1.206-6.999.512-8.205 3.837-1.206 3.325.512 6.999 3.837 8.205l19.666 7.132c3.325 1.206 6.999-.512 8.205-3.837 1.206-3.325-.512-6.999-3.837-8.205zm81.554 83.842c-1.499-3.204-5.311-4.587-8.515-3.088-3.204 1.499-4.587 5.311-3.088 8.515l12.663 27.075c1.499 3.204 5.311 4.587 8.515 3.088s4.587-5.311 3.088-8.515zm-35.551 11.746c-3.325-1.206-6.999.512-8.205 3.837l-7.132 19.666c-1.206 3.325.512 6.999 3.837 8.205s6.999-.512 8.205-3.837l7.132-19.666c1.206-3.326-.512-6.999-3.837-8.205zm83.622-22.78-19.666-7.132c-3.325-1.206-6.999.512-8.205 3.837s.512 6.999 3.837 8.205l19.666 7.132c3.325 1.206 6.999-.512 8.205-3.837 1.207-3.326-.511-6.999-3.837-8.205z" fill="#def4f8"/></g></svg>